<?xml version="1.0" ?><svg viewBox="0 0 512 512" xmlns="http://www.w3.org/2000/svg"><defs><style>.cls-1{fill:#ccc;}.cls-2{fill:#ed5167;}.cls-3{fill:#72d3b8;}.cls-4{fill:#55bc9c;}.cls-5{fill:#e8e8e8;}.cls-6{fill:#333538;}</style></defs><title/><g data-name="1 funnel" id="_1_funnel"><path class="cls-1" d="M261.25,134.9h0a76.62,76.62,0,0,1,76.62,76.62V423.22a0,0,0,0,1,0,0H261.25a0,0,0,0,1,0,0V134.9a0,0,0,0,1,0,0Z" transform="translate(285.06 -130.08) rotate(45)"/><path class="cls-2" d="M161.87,470.93l75.07-75.08a17.06,17.06,0,0,0,0-24.14l-40.19-40.19a17.06,17.06,0,0,0-24.14,0l-10.8,10.8a91,91,0,0,0-129.58.92c-34.17,35.14-34.17,91.69,0,126.83a91,91,0,0,0,129.58.92ZM57,447.11a57.21,57.21,0,1,1,80.9,0A57.22,57.22,0,0,1,57,447.11Z"/><rect class="cls-3" height="253.49" rx="47.61" transform="translate(511.66 282.22) rotate(180)" width="344.78" x="83.44" y="14.36"/><path class="cls-4" d="M126,184.86V97.36a40.46,40.46,0,0,0,40.46-40.45H345.23a40.44,40.44,0,0,0,40.44,40.45v87.5a40.44,40.44,0,0,0-40.44,40.44H166.44A40.46,40.46,0,0,0,126,184.86Z"/><circle class="cls-3" cx="255.83" cy="141.11" r="60.11"/><circle class="cls-3" cx="349.72" cy="141.11" r="21.88"/><circle class="cls-3" cx="161.94" cy="141.11" r="21.88"/><path class="cls-5" d="M174.13,134.9h76.62a0,0,0,0,1,0,0V346.61a76.62,76.62,0,0,1-76.62,76.62h0a0,0,0,0,1,0,0V134.9a0,0,0,0,1,0,0Z" transform="translate(559.99 326.17) rotate(135)"/><path class="cls-2" d="M350.19,471a91,91,0,0,0,129.58-.92c34.17-35.14,34.17-91.69,0-126.83a91,91,0,0,0-129.58-.92l-10.8-10.8a17.06,17.06,0,0,0-24.14,0l-40.19,40.19a17.06,17.06,0,0,0,0,24.14l75.07,75.08Zm23.89-23.88a57.21,57.21,0,1,1,80.9,0A57.2,57.2,0,0,1,374.08,447.11Z"/><circle class="cls-6" cx="256" cy="322.62" r="20.01"/></g></svg>